<svg width="51" height="28" fill="none" xmlns="http://www.w3.org/2000/svg"><path d="M1.656 3.202c.915 0 1.657-.717 1.657-1.601S2.57 0 1.656 0C.742 0 0 .717 0 1.601s.742 1.601 1.656 1.601ZM1.656 28c.915 0 1.657-.717 1.657-1.601s-.742-1.601-1.657-1.601c-.914 0-1.656.717-1.656 1.601S.742 28 1.656 28ZM6.019 7.33c.914 0 1.656-.718 1.656-1.602 0-.884-.742-1.6-1.656-1.6-.915 0-1.657.716-1.657 1.6 0 .884.742 1.601 1.657 1.601ZM6.019 23.855c.914 0 1.656-.717 1.656-1.6 0-.885-.742-1.602-1.656-1.602-.915 0-1.657.717-1.657 1.601s.742 1.601 1.657 1.601ZM10.399 11.456c.915 0 1.656-.717 1.656-1.6 0-.885-.741-1.602-1.656-1.602-.915 0-1.657.717-1.657 1.601s.742 1.601 1.657 1.601ZM10.399 19.728c.915 0 1.656-.717 1.656-1.6 0-.885-.741-1.602-1.656-1.602-.915 0-1.657.717-1.657 1.601s.742 1.601 1.657 1.601ZM14.761 15.601c.915 0 1.656-.717 1.656-1.601s-.741-1.601-1.656-1.601c-.915 0-1.656.717-1.656 1.601s.741 1.601 1.656 1.601ZM10.252 3.202c.914 0 1.656-.717 1.656-1.601S11.166 0 10.252 0c-.915 0-1.657.717-1.657 1.601s.742 1.601 1.656 1.601ZM10.252 28c.914 0 1.656-.717 1.656-1.601s-.742-1.601-1.656-1.601c-.915 0-1.657.717-1.657 1.601S9.337 28 10.251 28ZM14.632 7.33c.915 0 1.656-.718 1.656-1.602 0-.884-.741-1.6-1.656-1.6-.915 0-1.657.716-1.657 1.6 0 .884.742 1.601 1.657 1.601ZM14.632 23.855c.915 0 1.656-.717 1.656-1.6 0-.885-.741-1.602-1.656-1.602-.915 0-1.657.717-1.657 1.601s.742 1.601 1.657 1.601ZM19.012 11.456c.915 0 1.657-.717 1.657-1.6 0-.885-.742-1.602-1.657-1.602s-1.656.717-1.656 1.601.741 1.601 1.656 1.601ZM19.012 19.728c.915 0 1.657-.717 1.657-1.6 0-.885-.742-1.602-1.657-1.602s-1.656.717-1.656 1.601.741 1.601 1.656 1.601ZM23.374 15.601c.915 0 1.657-.717 1.657-1.601s-.742-1.601-1.657-1.601c-.914 0-1.656.717-1.656 1.601s.742 1.601 1.656 1.601ZM18.865 3.202c.915 0 1.656-.717 1.656-1.601S19.78 0 18.865 0c-.915 0-1.656.717-1.656 1.601s.741 1.601 1.656 1.601ZM18.865 28c.915 0 1.656-.717 1.656-1.601s-.741-1.601-1.656-1.601c-.915 0-1.656.717-1.656 1.601S17.95 28 18.865 28ZM23.245 7.33c.915 0 1.657-.718 1.657-1.602 0-.884-.742-1.6-1.657-1.6-.914 0-1.656.716-1.656 1.6 0 .884.742 1.601 1.657 1.601ZM23.245 23.855c.915 0 1.657-.717 1.657-1.6 0-.885-.742-1.602-1.657-1.602-.914 0-1.656.717-1.656 1.601s.742 1.601 1.657 1.601ZM27.626 11.456c.915 0 1.656-.717 1.656-1.6 0-.885-.741-1.602-1.656-1.602-.915 0-1.657.717-1.657 1.601s.742 1.601 1.657 1.601ZM27.626 19.728c.915 0 1.656-.717 1.656-1.6 0-.885-.741-1.602-1.656-1.602-.915 0-1.657.717-1.657 1.601s.742 1.601 1.657 1.601ZM31.988 15.601c.915 0 1.656-.717 1.656-1.601s-.741-1.601-1.656-1.601c-.915 0-1.657.717-1.657 1.601s.742 1.601 1.657 1.601ZM27.626 3.202c.914 0 1.656-.717 1.656-1.601S28.54 0 27.626 0c-.915 0-1.657.717-1.657 1.601s.742 1.601 1.657 1.601ZM27.626 28c.914 0 1.656-.717 1.656-1.601s-.742-1.601-1.656-1.601c-.915 0-1.657.717-1.657 1.601S26.711 28 27.626 28ZM31.988 7.33c.915 0 1.656-.718 1.656-1.602 0-.884-.741-1.6-1.656-1.6-.915 0-1.657.716-1.657 1.6 0 .884.742 1.601 1.657 1.601ZM31.988 23.855c.915 0 1.656-.717 1.656-1.6 0-.885-.741-1.602-1.656-1.602-.915 0-1.657.717-1.657 1.601s.742 1.601 1.657 1.601ZM36.368 11.456c.915 0 1.656-.717 1.656-1.6 0-.885-.741-1.602-1.656-1.602-.915 0-1.657.717-1.657 1.601s.742 1.601 1.657 1.601ZM36.368 19.728c.915 0 1.656-.717 1.656-1.6 0-.885-.741-1.602-1.656-1.602-.915 0-1.657.717-1.657 1.601s.742 1.601 1.657 1.601ZM40.749 15.601c.914 0 1.656-.717 1.656-1.601s-.742-1.601-1.656-1.601c-.915 0-1.657.717-1.657 1.601s.742 1.601 1.657 1.601ZM36.239 3.202c.915 0 1.656-.717 1.656-1.601S37.154 0 36.24 0c-.915 0-1.656.717-1.656 1.601s.741 1.601 1.656 1.601ZM36.24 28c.914 0 1.655-.717 1.655-1.601s-.741-1.601-1.656-1.601c-.915 0-1.656.717-1.656 1.601S35.324 28 36.239 28ZM40.601 7.33c.915 0 1.657-.718 1.657-1.602 0-.884-.742-1.6-1.657-1.6s-1.656.716-1.656 1.6c0 .884.741 1.601 1.656 1.601ZM40.601 23.855c.915 0 1.657-.717 1.657-1.6 0-.885-.742-1.602-1.657-1.602s-1.656.717-1.656 1.601.741 1.601 1.656 1.601ZM44.982 11.456c.915 0 1.656-.717 1.656-1.6 0-.885-.741-1.602-1.656-1.602-.915 0-1.657.717-1.657 1.601s.742 1.601 1.657 1.601ZM44.982 19.728c.915 0 1.656-.717 1.656-1.6 0-.885-.741-1.602-1.656-1.602-.915 0-1.657.717-1.657 1.601s.742 1.601 1.657 1.601ZM49.344 15.601c.915 0 1.656-.717 1.656-1.601s-.741-1.601-1.656-1.601c-.915 0-1.657.717-1.657 1.601s.742 1.601 1.657 1.601Z" fill="#3FF"/></svg>